<?xml version="1.0" encoding="UTF-8"?>
<svg version="1.1" xmlns="http://www.w3.org/2000/svg" width="594" height="279">
<path d="M0 0 C0.76313004 -0.00524185 1.52626007 -0.0104837 2.31251526 -0.0158844 C3.92553491 -0.02230379 5.53860139 -0.02096861 7.15161133 -0.01245117 C9.61689885 -0.00394767 12.07986374 -0.03268882 14.54492188 -0.06445312 C16.11328056 -0.06606546 17.68164333 -0.06548699 19.25 -0.0625 C19.98552597 -0.07373398 20.72105194 -0.08496796 21.47886658 -0.09654236 C24.6230435 -0.05384131 26.75398355 0.13743898 29.38644314 1.91973209 C31.96950029 5.51728391 31.74040079 8.89219558 31.69020081 13.15708923 C31.69558536 14.04719352 31.70096991 14.9372978 31.70651764 15.85437495 C31.71981436 18.84321776 31.70462795 21.8312431 31.68969727 24.82006836 C31.69351931 26.96030556 31.69913737 29.10054021 31.7064209 31.24076843 C31.71838663 35.85271973 31.71787039 40.46444344 31.70782661 45.07639885 C31.69229423 52.36624758 31.70592411 59.65586152 31.72386169 66.94569397 C31.75471005 81.10407196 31.75618167 95.26237861 31.75421143 109.420784 C31.75281942 127.4394373 31.76311515 145.45803576 31.80278915 163.47664839 C31.81774731 170.72595327 31.81743433 177.97505127 31.80531132 185.22435939 C31.8006082 189.73150849 31.80810811 194.23857802 31.81885529 198.74571419 C31.82126619 200.83832989 31.81850935 202.93095879 31.81024742 205.02355957 C31.79965415 207.87695565 31.80735652 210.72973859 31.81959534 213.58311462 C31.80823125 214.82951569 31.80823125 214.82951569 31.79663759 216.10109657 C31.8382599 220.6676211 32.15526274 223.76790853 35.19140625 227.43359375 C38.05287196 228.38741565 39.87026104 228.56872359 42.84208679 228.59181213 C44.27447189 228.60649536 44.27447189 228.60649536 45.73579407 228.62147522 C47.30456551 228.63010841 47.30456551 228.63010841 48.9050293 228.63891602 C50.00762085 228.64881561 51.1102124 228.65871521 52.24621582 228.66891479 C55.89849688 228.70055653 59.55079095 228.72529789 63.203125 228.75 C65.73232872 228.77056721 68.26152898 228.79156362 70.79072571 228.81297302 C76.77236059 228.8625681 82.75401315 228.9078272 88.73569661 228.95099539 C95.54582537 229.00038348 102.35590606 229.05529577 109.16598833 229.11067498 C123.17441611 229.2244668 137.18289004 229.33131194 151.19140625 229.43359375 C151.19140625 230.42359375 151.19140625 231.41359375 151.19140625 232.43359375 C151.81015625 232.26859375 152.42890625 232.10359375 153.06640625 231.93359375 C155.19140625 231.43359375 155.19140625 231.43359375 157.19140625 231.43359375 C158.52884898 230.92340547 159.86152226 230.40067255 161.19140625 229.87109375 C167.59585099 227.69502637 173.23483572 228.31790676 179.50390625 230.68359375 C184.62731067 234.01976407 188.94978659 238.30933264 190.75 244.2890625 C192.07094404 250.70674639 191.87396339 256.79190988 188.59375 262.546875 C185.07863604 267.27612303 180.07693736 272.17240851 174.19140625 273.43359375 C166.17592225 274.17475152 160.7306638 272.86249599 154.00390625 268.24609375 C148.94199256 263.18418006 146.96853978 258.75482781 146.69140625 251.55859375 C146.87384864 245.58360535 148.55568926 240.7520941 151.19140625 235.43359375 C149.87140625 235.43359375 148.55140625 235.43359375 147.19140625 235.43359375 C145.87140625 238.40359375 144.55140625 241.37359375 143.19140625 244.43359375 C128.97011392 244.50312537 114.74886209 244.55642128 100.52743435 244.58903027 C93.92374603 244.60468147 87.32017408 244.62591019 80.71655273 244.65991211 C74.34287943 244.6925244 67.96931801 244.71045087 61.5955677 244.71822548 C59.16471661 244.72376558 56.73387159 244.734584 54.30306816 244.75078392 C50.89649123 244.7725825 47.49037577 244.77555958 44.08374023 244.77416992 C43.08032593 244.78495575 42.07691162 244.79574158 41.04309082 244.80685425 C32.36004889 244.76856342 26.50902019 242.75120769 20.19140625 236.43359375 C16.5130173 230.8810018 15.60894099 225.98044963 15.67242432 219.42321777 C15.66492306 218.55066927 15.65742181 217.67812078 15.64969325 216.77913141 C15.62949647 213.8739927 15.637503 210.96964044 15.64550781 208.06445312 C15.63676846 205.97462191 15.62628141 203.88479737 15.61418152 201.79498291 C15.58634554 196.13442679 15.58291632 190.47408928 15.58390141 184.81347466 C15.58077027 178.89305615 15.55514782 172.9727358 15.53192139 167.05236816 C15.49137337 155.84702383 15.47102344 144.64173767 15.45794749 133.43633127 C15.44207344 120.67696509 15.40365604 107.91769786 15.36335421 95.15838909 C15.28097159 68.91682386 15.2268692 42.67526137 15.19140625 16.43359375 C9.74640625 15.93859375 9.74640625 15.93859375 4.19140625 15.43359375 C4.25197667 42.75466609 4.32950212 70.07564501 4.42712116 97.39661121 C4.47205527 110.08267701 4.51147551 122.76871489 4.5378418 135.45483398 C4.56084111 146.51416451 4.59426089 157.57340649 4.64010781 168.63266677 C4.66401379 174.48653227 4.68275983 180.34031022 4.68902016 186.1942234 C4.69508279 191.70915282 4.71512554 197.22385829 4.74568176 202.73870468 C4.75444305 204.75782781 4.75818855 206.77698024 4.75641441 208.7961216 C4.65977429 229.04099943 4.65977429 229.04099943 14.19140625 246.43359375 C23.0388477 254.31523263 33.88865397 255.88292404 45.35424805 255.8659668 C46.40923996 255.87615845 47.46423187 255.8863501 48.55119324 255.89685059 C51.99772604 255.92676274 55.44397994 255.93621318 58.890625 255.9453125 C61.29629932 255.96217532 63.7019649 255.9803277 66.10762024 255.99971008 C72.40885695 256.04704188 78.71005826 256.07695999 85.01141357 256.10314941 C91.45364365 256.13303998 97.89575201 256.17954104 104.33789062 256.22460938 C116.95566276 256.31045107 129.57346451 256.37844622 142.19140625 256.43359375 C142.44535156 256.99949219 142.69929687 257.56539063 142.9609375 258.1484375 C143.30511719 258.88191406 143.64929688 259.61539062 144.00390625 260.37109375 C144.34035156 261.10199219 144.67679688 261.83289063 145.0234375 262.5859375 C146.12740759 264.76388864 146.12740759 264.76388864 149.19140625 265.43359375 C149.57273924 267.42499935 149.90466207 269.42638452 150.19140625 271.43359375 C148.62347584 273.00152416 147.08595694 272.56278722 144.90667725 272.56730652 C143.98170441 272.5715715 143.05673157 272.57583649 142.10372925 272.58023071 C140.56883347 272.57955093 140.56883347 272.57955093 139.00292969 272.57885742 C137.3954335 272.58389534 137.3954335 272.58389534 135.75546265 272.58903503 C132.18722392 272.59858693 128.619032 272.60049098 125.05078125 272.6015625 C122.57228577 272.60477472 120.09379049 272.60813877 117.61529541 272.61164856 C112.40303102 272.61765221 107.19078323 272.61948745 101.97851562 272.61889648 C95.32439263 272.61823346 88.67036479 272.63238835 82.01626205 272.64966869 C76.88758871 272.66083856 71.75894092 272.66281408 66.63025665 272.66228676 C64.17925905 272.66346164 61.72826067 272.66785564 59.27727509 272.67561913 C37.66882499 272.73759482 18.15647522 272.71701123 1.44140625 257.12109375 C-16.87903736 237.86766459 -11.88697112 206.04918518 -11.85546875 181.6875 C-11.85465113 180.57598194 -11.8538335 179.46446388 -11.8529911 178.31926346 C-11.84639408 169.35735461 -11.82976249 160.39547825 -11.80859375 151.43359375 C-11.80691617 150.71879113 -11.8052386 150.0039885 -11.80351019 149.2675252 C-11.75590083 129.29526722 -11.68099871 109.32323248 -11.57286739 89.35120869 C-11.52736109 80.89446923 -11.4878863 72.43778196 -11.4621582 63.98095703 C-11.43923222 56.44629538 -11.40599093 48.91176576 -11.35989219 41.37720883 C-11.33607593 37.43139359 -11.31726605 33.48570702 -11.31097984 29.53982162 C-11.30496652 25.87665142 -11.28510619 22.21382453 -11.25431824 18.55078125 C-11.24130618 16.57068867 -11.24311247 14.59051619 -11.24531555 12.61038208 C-11.2327774 11.43755676 -11.22023926 10.26473145 -11.20732117 9.05636597 C-11.2027122 8.03656584 -11.19810324 7.01676571 -11.19335461 5.96606255 C-10.80859375 3.43359375 -10.80859375 3.43359375 -9.50179768 1.60742378 C-6.6373788 -0.37836237 -3.36447409 -0.01339147 0 0 Z " fill="#EDEDED" transform="translate(26.80859375,0.56640625)"/>
<path d="M0 0 C-0.66139397 3.00695608 -1.65363678 5.64206951 -2.9375 8.4375 C-4.03257297 10.83167094 -5.0076423 13.02813561 -5.69921875 15.57421875 C-7.56633526 19.05613873 -10.37524324 19.95252101 -13.875 21.375 C-15.24412216 21.97345792 -16.61129434 22.5763951 -17.9765625 23.18359375 C-18.65750977 23.48507324 -19.33845703 23.78655273 -20.04003906 24.09716797 C-44.00186371 35.13488939 -65.8853854 55.83692528 -82.98828125 75.70703125 C-84.95691601 77.95089262 -86.97405075 80.14423013 -89.00512695 82.33154297 C-93.55974585 87.23938355 -97.85632393 92.24200254 -101.984375 97.51953125 C-104.16210771 100.19949302 -106.46304268 102.71953104 -108.8125 105.25 C-113.0746465 109.87710094 -116.97208288 114.68784838 -120.81689453 119.65820312 C-124.45330363 124.34621203 -128.23555104 128.88705283 -132.09448242 133.39282227 C-134.72899015 136.47509774 -137.27057232 139.60477391 -139.75 142.8125 C-159.86855339 168.08336585 -186.63671987 193.61299019 -217 206 C-217.99 206 -218.98 206 -220 206 C-221.24609375 204.35546875 -221.24609375 204.35546875 -222.4375 202.1875 C-224.30728577 198.96920207 -225.9398984 197.15340483 -229 195 C-229 194.01 -229 193.02 -229 192 C-227.85337891 191.61521484 -227.85337891 191.61521484 -226.68359375 191.22265625 C-204.72325014 183.37401359 -187.23696055 168.33303724 -171 152 C-169.75586382 150.76626572 -168.51101476 149.53325009 -167.265625 148.30078125 C-165.92703857 146.97139924 -164.58849776 145.64197129 -163.25 144.3125 C-162.22326172 143.29833008 -162.22326172 143.29833008 -161.17578125 142.26367188 C-160.52480469 141.61591797 -159.87382812 140.96816406 -159.203125 140.30078125 C-158.31608887 139.42160034 -158.31608887 139.42160034 -157.41113281 138.5246582 C-155.90170176 137.03618182 -155.90170176 137.03618182 -155 135 C-154.34 135 -153.68 135 -153 135 C-152.75765625 134.43796875 -152.5153125 133.8759375 -152.265625 133.296875 C-150.7498937 130.54610337 -148.89611758 128.54211197 -146.75 126.25 C-143.4267368 122.69754623 -140.48012543 119.01866703 -137.59326172 115.11474609 C-134.90465555 111.54614257 -132.04256825 108.12330028 -129.1875 104.6875 C-127.94770694 103.1902778 -126.70812349 101.69288202 -125.46875 100.1953125 C-124.57542969 99.11685059 -124.57542969 99.11685059 -123.6640625 98.01660156 C-122.23607314 96.28608629 -120.81717058 94.54911896 -119.40625 92.8046875 C-115.15838377 87.55468382 -110.77452578 82.48873625 -106.21875 77.50390625 C-104.04349186 75.04908149 -102.02379455 72.51783805 -100 69.9375 C-93.86969876 62.33983942 -86.79251559 55.63142734 -79.83398438 48.80175781 C-77.00147635 46.01902229 -74.18006092 43.22487799 -71.42504883 40.36523438 C-67.20717616 36.03628691 -62.76143308 32.26104095 -57.9375 28.625 C-56.82060791 27.78146973 -56.82060791 27.78146973 -55.68115234 26.92089844 C-40.7465042 15.75260081 -19.45378248 0 0 0 Z " fill="#D6D6D6" transform="translate(440,35)"/>
<path d="M0 0 C3 6 3 6 4 8.3125 C4.95854206 10.35003098 4.95854206 10.35003098 8 11 C8 11.99 8 12.98 8 14 C7.23558594 14.25652344 6.47117187 14.51304688 5.68359375 14.77734375 C-23.09483411 25.06277465 -45.96462678 48.47366118 -65.50415039 71.26342773 C-67.74640582 73.86652271 -70.09490847 76.36184831 -72.4375 78.875 C-76.46652607 83.23451065 -80.2563252 87.71085214 -83.91796875 92.38671875 C-86.31732949 95.39829911 -88.809324 98.32496985 -91.3125 101.25 C-94.62443739 105.12152488 -97.83287848 109.04244733 -100.92944336 113.08837891 C-106.65756434 120.56702383 -112.90828315 127.41029113 -119.421875 134.2109375 C-122.49499092 137.43009338 -125.43678325 140.74572694 -128.35253906 144.10742188 C-137.85373392 155.02225035 -147.65063513 165.00283511 -159 174 C-159.51369141 174.41185547 -160.02738281 174.82371094 -160.55664062 175.24804688 C-176.81198256 188.25632914 -195.89247049 199.96268901 -216 206 C-218.421875 205.65234375 -218.421875 205.65234375 -220 205 C-219.66226563 204.3709375 -219.32453125 203.741875 -218.9765625 203.09375 C-215.85681342 197.20112266 -215.85681342 197.20112266 -214.5625 190.75 C-214.140625 188.79296875 -214.140625 188.79296875 -213 187 C-209.77551009 185.19670868 -206.42387083 183.91374565 -202.98046875 182.60546875 C-186.93663429 176.40822901 -172.13025388 164.31434439 -159.8203125 152.546875 C-158 151 -158 151 -156 151 C-156 150.34 -156 149.68 -156 149 C-154.6015625 147.625 -154.6015625 147.625 -152.625 146 C-142.07209102 137.01601908 -133.17030605 126.70685591 -124.453125 115.98828125 C-121.37539149 112.23913135 -118.2373918 108.54367053 -115.09570312 104.84814453 C-112.10715749 101.32622942 -109.16455176 97.77120905 -106.25 94.1875 C-103.1780205 90.41288689 -100.03102565 86.72857734 -96.8046875 83.0859375 C-94.68988229 80.64155225 -92.6587046 78.13722332 -90.625 75.625 C-86.25354574 70.25329774 -81.66809329 65.11383136 -77 60 C-75.49870445 58.33450024 -73.99870578 56.66783056 -72.5 55 C-71.75878906 54.17757812 -71.01757812 53.35515625 -70.25390625 52.5078125 C-68.7362844 50.81922805 -67.22334288 49.1264267 -65.71484375 47.4296875 C-51.61598802 31.61381846 -23.11899436 0 0 0 Z " fill="#DCDCDC" transform="translate(436,65)"/>
<path d="M0 0 C0 0.66 0 1.32 0 2 C0.680625 2.165 1.36125 2.33 2.0625 2.5 C7.08834188 5.06638734 11.20973991 9.62921972 13 15 C13.68919956 22.1972125 13.94521293 28.38903693 9.4921875 34.3515625 C5.28066193 39.00408551 0.91291015 42.53069458 -5.5078125 43.30078125 C-12.429627 43.33177445 -18.42538162 42.13643305 -25 40 C-24.73264689 41.98215284 -24.73264689 41.98215284 -24 44 C-22.01276732 44.70381157 -20.01222047 45.3711811 -18 46 C-16.66824807 49.9952558 -18.01750993 52.35873787 -19.5625 56.0625 C-19.84134033 56.73716309 -20.12018066 57.41182617 -20.4074707 58.10693359 C-30.33311201 81.55125918 -49.61342947 98.86610781 -72.66015625 109.08984375 C-74.76554529 109.90880142 -76.79637402 110.51652548 -79 111 C-79.47179687 110.18595703 -79.47179687 110.18595703 -79.953125 109.35546875 C-82.30907535 105.41705778 -84.20880045 102.66788117 -88 100 C-88 99.01 -88 98.02 -88 97 C-87.18917969 96.70867187 -86.37835938 96.41734375 -85.54296875 96.1171875 C-63.23679537 87.85948886 -46.48626018 74.63488492 -36.16796875 52.87109375 C-34.71657653 49.30329013 -33.6748409 45.71776577 -32.8359375 41.9609375 C-31.74294994 39.39701341 -30.50322604 39.06077302 -28 38 C-26.89453631 36.25007285 -26.89453631 36.25007285 -27 34 C-27.45375 33.0925 -27.9075 32.185 -28.375 31.25 C-31.26964254 25.46071492 -31.47697647 20.93377139 -29.8125 14.8125 C-27.438904 7.91324764 -23.98046904 4.37858304 -17.578125 1.0078125 C-11.97980297 -1.18062247 -5.78232902 -1.75222091 0 0 Z " fill="#F0F0F0" transform="translate(565,131)"/>
<path d="M0 0 C0.76313004 -0.00524185 1.52626007 -0.0104837 2.31251526 -0.0158844 C3.92553491 -0.02230379 5.53860139 -0.02096861 7.15161133 -0.01245117 C9.61689885 -0.00394767 12.07986374 -0.03268882 14.54492188 -0.06445312 C16.11328056 -0.06606546 17.68164333 -0.06548699 19.25 -0.0625 C19.98552597 -0.07373398 20.72105194 -0.08496796 21.47886658 -0.09654236 C24.6230435 -0.05384131 26.75398355 0.13743898 29.38644314 1.91973209 C31.96950029 5.51728391 31.74040079 8.89219558 31.69020081 13.15708923 C31.69558536 14.04719352 31.70096991 14.9372978 31.70651764 15.85437495 C31.71981436 18.84321776 31.70462795 21.8312431 31.68969727 24.82006836 C31.69351931 26.96030556 31.69913737 29.10054021 31.7064209 31.24076843 C31.71838663 35.85271973 31.71787039 40.46444344 31.70782661 45.07639885 C31.69229423 52.36624758 31.70592411 59.65586152 31.72386169 66.94569397 C31.75471005 81.10407196 31.75618167 95.26237861 31.75421143 109.420784 C31.75281942 127.4394373 31.76311515 145.45803576 31.80278915 163.47664839 C31.81774731 170.72595327 31.81743433 177.97505127 31.80531132 185.22435939 C31.8006082 189.73150849 31.80810811 194.23857802 31.81885529 198.74571419 C31.82126619 200.83832989 31.81850935 202.93095879 31.81024742 205.02355957 C31.79965415 207.87695565 31.80735652 210.72973859 31.81959534 213.58311462 C31.80823125 214.82951569 31.80823125 214.82951569 31.79663759 216.10109657 C31.8382599 220.6676211 32.15526274 223.76790853 35.19140625 227.43359375 C38.05287196 228.38741565 39.87026104 228.56872359 42.84208679 228.59181213 C44.27447189 228.60649536 44.27447189 228.60649536 45.73579407 228.62147522 C47.30456551 228.63010841 47.30456551 228.63010841 48.9050293 228.63891602 C50.00762085 228.64881561 51.1102124 228.65871521 52.24621582 228.66891479 C55.89849688 228.70055653 59.55079095 228.72529789 63.203125 228.75 C65.73232872 228.77056721 68.26152898 228.79156362 70.79072571 228.81297302 C76.77236059 228.8625681 82.75401315 228.9078272 88.73569661 228.95099539 C95.54582537 229.00038348 102.35590606 229.05529577 109.16598833 229.11067498 C123.17441611 229.2244668 137.18289004 229.33131194 151.19140625 229.43359375 C151.19140625 230.42359375 151.19140625 231.41359375 151.19140625 232.43359375 C151.81015625 232.26859375 152.42890625 232.10359375 153.06640625 231.93359375 C155.19140625 231.43359375 155.19140625 231.43359375 157.19140625 231.43359375 C158.52884898 230.92340547 159.86152226 230.40067255 161.19140625 229.87109375 C167.59585099 227.69502637 173.23483572 228.31790676 179.50390625 230.68359375 C184.62731067 234.01976407 188.94978659 238.30933264 190.75 244.2890625 C192.07094404 250.70674639 191.87396339 256.79190988 188.59375 262.546875 C185.07863604 267.27612303 180.07693736 272.17240851 174.19140625 273.43359375 C166.17592225 274.17475152 160.7306638 272.86249599 154.00390625 268.24609375 C148.94199256 263.18418006 146.96853978 258.75482781 146.69140625 251.55859375 C146.87384864 245.58360535 148.55568926 240.7520941 151.19140625 235.43359375 C149.87140625 235.10359375 148.55140625 234.77359375 147.19140625 234.43359375 C147.52140625 233.44359375 147.85140625 232.45359375 148.19140625 231.43359375 C147.6187972 231.43212719 147.04618814 231.43066063 146.4562273 231.42914963 C132.51783984 231.39208408 118.57969862 231.33282044 104.64150715 231.24969101 C97.90105609 231.20989605 91.16072185 231.177506 84.42016602 231.16259766 C77.91668238 231.1481928 71.41350235 231.11308677 64.91017723 231.06528473 C62.42748344 231.05043313 59.94473797 231.04255058 57.46199989 231.0417099 C53.98770042 231.03934997 50.51440936 231.01234683 47.0402832 230.97949219 C46.01097687 230.98452255 44.98167053 230.98955292 43.9211731 230.99473572 C39.49165185 230.92981443 36.9151469 230.87708034 33.07585144 228.5244751 C29.5305851 224.59083389 30.04697876 220.95436428 30.05337524 215.89918518 C30.05055396 215.00529506 30.04773268 214.11140494 30.04482591 213.19042724 C30.0364529 210.17715445 30.03513937 207.16391826 30.03369141 204.15063477 C30.02902525 201.99759822 30.02388202 199.84456267 30.01829529 197.69152832 C30.0069994 193.04632726 29.99857251 188.40113267 29.99217606 183.75592232 C29.98151894 176.4164349 29.96128118 169.07699395 29.9390564 161.73753357 C29.8770521 140.86402509 29.82307602 119.99051925 29.79003906 99.11694336 C29.7717235 87.59549592 29.74282746 76.07412614 29.70203435 64.55273575 C29.68091499 58.4509908 29.66550011 52.34934393 29.66322708 46.2475605 C29.66108763 40.51103357 29.64529048 34.77471094 29.61883736 29.03824615 C29.61161633 26.92867851 29.60955686 24.81908619 29.61293983 22.7095089 C29.61681061 19.83775638 29.60245796 16.96666417 29.58340454 14.09498596 C29.58893424 13.25297105 29.59446393 12.41095614 29.60016119 11.54342562 C29.66274304 7.35682136 29.66274304 7.35682136 27.8761667 3.72037834 C25.13675533 1.62807357 22.05659412 2.02681313 18.75 2.0703125 C18.02651871 2.069814 17.30303741 2.06931549 16.55763245 2.06880188 C15.030337 2.07113986 13.50303753 2.08085222 11.97583008 2.09741211 C9.63392852 2.12104307 7.29316265 2.11796684 4.95117188 2.11132812 C3.46744111 2.11690376 1.98371515 2.12401293 0.5 2.1328125 C-0.20210098 2.13190109 -0.90420197 2.13098969 -1.62757874 2.13005066 C-5.66646707 2.08086085 -5.66646707 2.08086085 -8.80859375 4.43359375 C-9.01451174 7.42885983 -9.09364617 10.33276311 -9.08706665 13.3298645 C-9.09285905 14.26262329 -9.09865145 15.19538208 -9.10461938 16.15640628 C-9.12170762 19.3010826 -9.12450345 22.44561294 -9.12744141 25.59033203 C-9.1367335 27.83690759 -9.14690108 30.08347967 -9.15788269 32.33004761 C-9.18527782 38.44542923 -9.2003602 44.56078771 -9.21331072 50.67621469 C-9.22889978 57.06109696 -9.25570336 63.44593164 -9.28134155 69.83078003 C-9.32287398 80.55270215 -9.357447 91.27462094 -9.38671875 101.99658203 C-9.41689125 113.04152289 -9.45123551 124.08643774 -9.49121094 135.13134766 C-9.49367249 135.8118572 -9.49613403 136.49236675 -9.49867018 137.19349779 C-9.51104452 140.60732502 -9.52350111 144.02115194 -9.53599858 147.43497872 C-9.63961413 175.76781405 -9.72865385 204.10068242 -9.80859375 232.43359375 C-10.13859375 232.43359375 -10.46859375 232.43359375 -10.80859375 232.43359375 C-11.70684836 215.51248356 -11.88555501 198.61292064 -11.859375 181.671875 C-11.85737063 179.38514204 -11.85540356 177.09840905 -11.85346985 174.81167603 C-11.8448506 167.01896638 -11.82774597 159.2262831 -11.80859375 151.43359375 C-11.8068751 150.71895541 -11.80515646 150.00431706 -11.80338573 149.26802301 C-11.75506438 129.29560053 -11.68099768 109.32340351 -11.57286644 89.3512125 C-11.52736158 80.89447177 -11.4878863 72.43778323 -11.4621582 63.98095703 C-11.43923222 56.44629538 -11.40599093 48.91176576 -11.35989219 41.37720883 C-11.33607593 37.43139359 -11.31726605 33.48570702 -11.31097984 29.53982162 C-11.30496652 25.87665142 -11.28510619 22.21382453 -11.25431824 18.55078125 C-11.24130618 16.57068867 -11.24311247 14.59051619 -11.24531555 12.61038208 C-11.2327774 11.43755676 -11.22023926 10.26473145 -11.20732117 9.05636597 C-11.2027122 8.03656584 -11.19810324 7.01676571 -11.19335461 5.96606255 C-10.80859375 3.43359375 -10.80859375 3.43359375 -9.50179768 1.60742378 C-6.6373788 -0.37836237 -3.36447409 -0.01339147 0 0 Z " fill="#E4E4E4" transform="translate(26.80859375,0.56640625)"/>
<path d="M0 0 C25.8269898 1.03307959 51.67506138 20.34488236 70 37 C70.93054199 37.84014648 70.93054199 37.84014648 71.87988281 38.69726562 C78.80059345 44.97012371 85.57474628 51.25151819 91.58203125 58.42578125 C92.93358831 60.11898985 92.93358831 60.11898985 95 61 C95 61.66 95 62.32 95 63 C95.59941406 63.25136719 96.19882812 63.50273438 96.81640625 63.76171875 C99.29362153 65.16650809 100.32960288 66.48305348 101.9375 68.8125 C103.83748844 71.49768775 105.47561814 73.43514 107.9375 75.6875 C108.618125 76.450625 109.29875 77.21375 110 78 C109.739094 82.17449604 108.23950002 84.30671816 105.4375 87.3125 C104.79683594 88.00988281 104.15617187 88.70726563 103.49609375 89.42578125 C103.00238281 89.94527344 102.50867188 90.46476562 102 91 C98.53604685 89.54068493 96.6251967 87.71176736 94.1875 84.875 C90.00076063 80.10503326 85.71776222 75.44099142 81.375 70.8125 C80.75391357 70.14782715 80.13282715 69.4831543 79.49291992 68.79833984 C73.85821102 62.79146419 68.25997073 56.8354805 61.8125 51.6875 C58.92758484 49.37644482 56.07182895 47.06301876 53.29296875 44.625 C41.876506 34.6615416 29.59344758 26.25705738 15.125 21.5625 C10.41830039 20.00340264 7.7030405 19.04746585 4.87109375 14.828125 C3.5625 11.3125 3.5625 11.3125 2.75390625 7.98828125 C1.98846336 4.95427186 1.03647797 3.33145528 -1 1 C-0.67 0.67 -0.34 0.34 0 0 Z " fill="#D9D9D9" transform="translate(213,36)"/>
<path d="M0 0 C3.53723555 0.56268769 4.88060703 1.63445305 7.09765625 4.40234375 C11.57910484 9.76026004 16.49055888 14.63665458 21.4375 19.5625 C22.34048828 20.46935547 23.24347656 21.37621094 24.17382812 22.31054688 C29.28804305 27.41735526 34.5051875 32.30757092 40 37 C40.99904885 37.88746554 41.99656032 38.77666621 42.9921875 39.66796875 C57.07001255 51.97175894 73.48427099 63.63839948 91.25 69.875 C94.01250894 71.02777629 94.80375068 71.61142635 96.171875 74.3203125 C96.96204699 76.87718979 97.5275581 79.36782369 98 82 C98.32483418 83.33542939 98.6550855 84.66961551 99 86 C99.66 86 100.32 86 101 86 C101.33 86.99 101.66 87.98 102 89 C96.71562445 90.93832628 92.45666508 88.75285581 87.5 86.8125 C86.1224353 86.27870728 86.1224353 86.27870728 84.71704102 85.73413086 C69.68243759 79.67705205 55.49989569 71.32215182 43 61 C42.4750293 60.5683252 41.95005859 60.13665039 41.40917969 59.69189453 C34.83948477 54.27103027 28.44932845 48.66535265 22.15234375 42.9296875 C20.34713844 41.31122756 18.51462078 39.76735135 16.625 38.25 C14.03005369 36.02576031 12.10128994 33.68095613 10 31 C9.01 30.34 8.02 29.68 7 29 C7 28.34 7 27.68 7 27 C6.34 27 5.68 27 5 27 C3.484375 25.4609375 3.484375 25.4609375 1.75 23.375 C-0.53943356 20.64788061 -2.84838052 18.18532771 -5.5 15.8125 C-8 13 -8 13 -7.87890625 10.59375 C-6.86762407 7.60934393 -5.57793471 5.98360269 -3.4375 3.6875 C-2.79683594 2.99011719 -2.15617187 2.29273438 -1.49609375 1.57421875 C-1.00238281 1.05472656 -0.50867188 0.53523437 0 0 Z " fill="#D8D8D8" transform="translate(339,181)"/>
<path d="M0 0 C-0.42781612 7.17023661 -1.7896528 13.53028353 -4.125 20.3125 C-4.43630859 21.22749268 -4.74761719 22.14248535 -5.06835938 23.08520508 C-9.06103439 34.46372636 -14.78196688 44.34408815 -22 54 C-22.63550781 54.86367187 -23.27101563 55.72734375 -23.92578125 56.6171875 C-27.47240866 61.33133822 -27.47240866 61.33133822 -29 63 C-29.66 63 -30.32 63 -31 63 C-31 63.66 -31 64.32 -31 65 C-31.66 65 -32.32 65 -33 65 C-33.226875 65.57105469 -33.45375 66.14210938 -33.6875 66.73046875 C-41.92490683 80.97431806 -64.92089608 91.07086525 -80 96.4375 C-80.69359619 96.68443604 -81.38719238 96.93137207 -82.10180664 97.18579102 C-86.39769779 98.64090945 -90.49284512 99.48942386 -95 100 C-95.33 98.68 -95.66 97.36 -96 96 C-94.515 95.505 -94.515 95.505 -93 95 C-92.46891344 92.93401493 -92.02435489 90.84543859 -91.625 88.75 C-89.82640613 82.52929939 -89.82640613 82.52929939 -86.4140625 80.34375 C-84.21748555 79.58443945 -82.00159083 78.87968537 -79.7734375 78.21875 C-68.26445939 74.50156452 -57.83229263 67.09738175 -49 59 C-48.07574219 58.15695313 -47.15148437 57.31390625 -46.19921875 56.4453125 C-34.30492194 45.0939089 -23.20329779 29.62153444 -19.5625 13.25 C-18.82939827 10.41691654 -18.51262537 9.35041531 -16.07421875 7.68359375 C-13.75 6.6875 -13.75 6.6875 -11.35546875 5.87109375 C-8.89318719 4.96049874 -7.14841789 3.82865064 -5.0625 2.25 C-2 0 -2 0 0 0 Z " fill="#D6D6D6" transform="translate(577,171)"/>
<path d="M0 0 C29.77918996 3.1588975 55.36617014 22.12078904 73.99951172 44.67285156 C86.1389239 59.98339484 93.05066769 78.0165615 97 97 C89.08297872 96.35106383 89.08297872 96.35106383 86 93 C84.31197266 92.67708984 84.31197266 92.67708984 82.58984375 92.34765625 C79 91 79 91 77.3203125 87.8671875 C76.89948068 86.54336986 76.50241365 85.21184385 76.125 83.875 C67.69919778 58.44785248 48.73912982 37.0576873 24.82763672 24.89501953 C16.98131916 20.99595643 16.98131916 20.99595643 8.640625 18.62109375 C8.09921875 18.41613281 7.5578125 18.21117188 7 18 C6.05859375 15.8203125 6.05859375 15.8203125 5.4375 13.125 C4.56755035 9.41825802 3.8426869 7.531655 1 5 C0.34 4.01 -0.32 3.02 -1 2 C-0.67 1.34 -0.34 0.68 0 0 Z " fill="#E2E2E2" transform="translate(480,35)"/>
<path d="M0 0 C-0.33 1.32 -0.66 2.64 -1 4 C-1.66 4 -2.32 4 -3 4 C-3.103125 4.845625 -3.20625 5.69125 -3.3125 6.5625 C-5.09065624 15.45328121 -5.09065624 15.45328121 -8.55029297 18.25585938 C-12.48609013 20.57364177 -16.72773506 22.24961495 -20.92236328 24.03759766 C-30.37830441 28.41777626 -38.63144212 35.75466215 -46 43 C-46.77085938 43.75796875 -47.54171875 44.5159375 -48.3359375 45.296875 C-58.67116318 56.09066018 -66.55990783 71.05720131 -70.125 85.5625 C-73.12982932 91.07135376 -78.27352069 92.08125758 -84 94 C-85.67069502 94.65650617 -87.33888544 95.31961728 -89 96 C-90.28822196 93.42355608 -89.80136595 92.6439386 -88.99609375 89.921875 C-88.63209473 88.6858252 -88.63209473 88.6858252 -88.26074219 87.42480469 C-87.98907227 86.54211914 -87.71740234 85.65943359 -87.4375 84.75 C-87.15938477 83.84411133 -86.88126953 82.93822266 -86.59472656 82.00488281 C-80.26549384 61.83000653 -70.24061249 45.50205415 -56 30 C-55.27425781 29.18015625 -54.54851562 28.3603125 -53.80078125 27.515625 C-43.71384124 16.67936945 -15.9247013 -5.11737592 0 0 Z " fill="#DEDEDE" transform="translate(173,38)"/>
<path d="M0 0 C17.2297847 1.7054863 32.44764251 14.99002369 45 26 C45.70769531 26.60714844 46.41539062 27.21429688 47.14453125 27.83984375 C49.11691249 29.53816781 51.062009 31.26249083 53 33 C53.47937012 33.42893555 53.95874023 33.85787109 54.45263672 34.29980469 C60.99308698 40.17407957 67.21907184 46.12856759 73.01171875 52.7578125 C74.83805187 54.81737088 76.72257778 56.76110567 78.6875 58.6875 C81.00004458 60.9837972 83.29116063 63.29078234 85.5 65.6875 C86.0053125 66.22761719 86.510625 66.76773438 87.03125 67.32421875 C88 69 88 69 87.8359375 70.9453125 C86.8699428 73.31967332 85.66836779 75.14119395 84.125 77.1875 C83.61195313 77.88230469 83.09890625 78.57710938 82.5703125 79.29296875 C81 81 81 81 78 82 C77.67 81.01 77.34 80.02 77 79 C76.42121094 78.71769531 75.84242188 78.43539062 75.24609375 78.14453125 C72.19081873 76.58766937 70.28863862 74.2260585 68.0625 71.6875 C62.36329829 65.36588184 56.43900323 59.28449315 50.4375 53.25 C49.57584229 52.37561279 48.71418457 51.50122559 47.82641602 50.6003418 C32.06730768 34.81439422 13.32364651 20.33000349 -8 13 C-8 12.01 -8 11.02 -8 10 C-7.34 10 -6.68 10 -6 10 C-5.7525 9.46375 -5.505 8.9275 -5.25 8.375 C-3.70303025 5.43575748 -1.86985631 2.74245592 0 0 Z " fill="#D3D3D3" transform="translate(218,66)"/>
<path d="M0 0 C3.23405894 0.57268436 4.74971509 1.40884898 6.92578125 3.8515625 C7.4676709 4.44839844 8.00956055 5.04523438 8.56787109 5.66015625 C9.14359863 6.30855469 9.71932617 6.95695313 10.3125 7.625 C11.55893161 8.99425395 12.80770735 10.36137703 14.05859375 11.7265625 C14.70425293 12.43200195 15.34991211 13.13744141 16.01513672 13.86425781 C23.87438443 22.32092435 32.06218209 30.67995917 41 38 C41.49338867 38.41781738 41.98677734 38.83563477 42.49511719 39.26611328 C56.97388743 51.51641193 72.38102291 60.9668116 90 68 C90 68.66 90 69.32 90 70 C88.54038771 71.19422823 87.07863806 72.38603377 85.6015625 73.55859375 C83.17366969 75.74369728 81.68462005 78.21389761 80 81 C61.98749897 78.84281425 42.43956724 61.68208827 29.75 49.609375 C28.08010523 47.92493866 28.08010523 47.92493866 26 47 C26 46.34 26 45.68 26 45 C25.20154663 44.6894165 25.20154663 44.6894165 24.38696289 44.37255859 C21.03026441 42.44237972 18.50805 39.77312312 15.80859375 37.0390625 C15.22207535 36.45208588 14.63555695 35.86510925 14.03126526 35.26034546 C12.79426535 34.02033006 11.55969119 32.77789069 10.32739258 31.53320312 C8.44596951 29.63355156 6.55669562 27.74199647 4.66601562 25.8515625 C3.46306935 24.64369938 2.26058 23.43538098 1.05859375 22.2265625 C0.49603378 21.66288971 -0.06652618 21.09921692 -0.64613342 20.51846313 C-3.32339279 17.80881891 -5.81584906 15.13760677 -8 12 C-6.59023295 8.96147295 -4.91129772 6.4060405 -2.875 3.75 C-2.06675781 2.69039062 -2.06675781 2.69039062 -1.2421875 1.609375 C-0.83226562 1.07828125 -0.42234375 0.5471875 0 0 Z " fill="#D2D2D2" transform="translate(356,160)"/>
<path d="M0 0 C4.29212253 3.39142016 7.1137868 8.3101104 8.82421875 13.44140625 C9.74981474 21.38830894 8.73939797 27.97822806 3.82421875 34.44140625 C-2.10740085 39.55236394 -7.59185827 41.89904954 -15.4140625 41.7734375 C-21.30929526 41.06467543 -26.23708111 38.72222994 -30.1015625 34.17578125 C-34.72411272 27.3357308 -35.79028482 22.70927242 -35.17578125 14.44140625 C-33.96534197 8.76091956 -31.63183354 5.24535333 -27.17578125 1.44140625 C-26.55703125 0.88453125 -25.93828125 0.32765625 -25.30078125 -0.24609375 C-17.50079276 -5.0637337 -7.87125895 -4.32679751 0 0 Z " fill="#E5E5E5" transform="translate(474.17578125,232.55859375)"/>
<path d="M0 0 C5.73587518 3.32138973 9.62955833 8.1612435 11.6875 14.4375 C12.64881511 21.59170824 12.05311204 27.93211043 8.4140625 34.234375 C4.43750285 39.30853709 -0.20845675 41.96110008 -6.5703125 42.9375 C-13.22894637 43.18468826 -18.9411537 42.59269242 -24.3125 38.4375 C-26.30409069 36.5240109 -27.71811678 34.72942588 -29.3125 32.4375 C-29.3125 31.7775 -29.3125 31.1175 -29.3125 30.4375 C-29.9725 30.1075 -30.6325 29.7775 -31.3125 29.4375 C-33.34745921 23.77455796 -33.86434245 18.71718839 -31.6875 13.0625 C-28.40850424 6.23485423 -24.99949698 2.60267459 -18.09765625 -0.609375 C-12.00375005 -2.69480714 -5.92031381 -2.59366129 0 0 Z " fill="#EBEBEB" transform="translate(470.3125,34.5625)"/>
<path d="M0 0 C5.21542302 3.05319556 9.33762369 7.84382521 11.625 13.4375 C12.65964714 20.9687687 11.53360482 27.8925928 7.625 34.4375 C3.33101346 39.45928087 -1.29969791 42.03623949 -7.9140625 42.6875 C-14.29120988 42.96858639 -19.19005763 42.30635196 -24.375 38.4375 C-30.14312484 33.13185288 -32.38392482 28.01174426 -32.8125 20.1875 C-32.67143 14.09659533 -31.04944964 9.31625491 -27.375 4.4375 C-19.85436358 -1.92724094 -9.21504017 -4.17083056 0 0 Z " fill="#E2E2E2" transform="translate(203.375,35.5625)"/>
<path d="M0 0 C4.81718269 3.5555396 9.42162316 8.28216612 11.625 13.9375 C12.52641771 21.2746209 12.19804507 27.92951117 7.625 33.9375 C2.72560709 39.2520957 -1.85144026 41.64387002 -9.125 42.25 C-14.68766274 42.11039649 -21.36398573 40.94851427 -25.375 36.9375 C-26.42144066 35.29959288 -27.4148183 33.62741979 -28.375 31.9375 C-29.2103125 30.57625 -29.2103125 30.57625 -30.0625 29.1875 C-32.66516737 22.74279984 -31.8000519 16.50719022 -29.42578125 10.08203125 C-26.91927194 4.96651597 -23.56952682 1.27766057 -18.375 -1.0625 C-13.30429869 -3.59785066 -5.20571507 -1.63883623 0 0 Z " fill="#EDEDED" transform="translate(113.375,133.0625)"/>
<path d="M0 0 C2.64 1.98 5.28 3.96 8 6 C5.3333581 7.33332095 3.83319697 6.67102033 1 6 C1.03122943 7.96756452 1.03122943 7.96756452 2 10 C3.98723268 10.70381157 5.98777953 11.3711811 8 12 C9.33175193 15.9952558 7.98249007 18.35873787 6.4375 22.0625 C6.0192395 23.07449463 6.0192395 23.07449463 5.5925293 24.10693359 C-4.33311201 47.55125918 -23.61342947 64.86610781 -46.66015625 75.08984375 C-48.76554529 75.90880142 -50.79637402 76.51652548 -53 77 C-53.47179687 76.18595703 -53.47179687 76.18595703 -53.953125 75.35546875 C-56.30907535 71.41705778 -58.20880045 68.66788117 -62 66 C-62 65.01 -62 64.02 -62 63 C-61.18917969 62.70867187 -60.37835938 62.41734375 -59.54296875 62.1171875 C-37.23679537 53.85948886 -20.48626018 40.63488492 -10.16796875 18.87109375 C-8.71657653 15.30329013 -7.6748409 11.71776577 -6.8359375 7.9609375 C-5.73684024 5.38268131 -4.46920112 5.18256758 -2 4 C-1.34 2.68 -0.68 1.36 0 0 Z " fill="#E1E1E1" transform="translate(539,165)"/>
<path d="M0 0 C5.60107836 0.51579321 9.82874104 1.99819971 14.8125 4.5625 C15.51391113 4.91965088 16.21532227 5.27680176 16.93798828 5.64477539 C22.90570828 8.77703828 27.97061217 12.51223855 33 17 C33.80566406 17.65226562 34.61132812 18.30453125 35.44140625 18.9765625 C48.9328524 30.25110435 57.70988419 45.37030579 63 62 C61.41906946 63.12837409 59.83515284 64.25256518 58.25 65.375 C57.36828125 66.00148438 56.4865625 66.62796875 55.578125 67.2734375 C53.42585021 68.71480941 51.34539477 69.91498093 49 71 C48.70867188 70.27296875 48.41734375 69.5459375 48.1171875 68.796875 C43.09664075 56.48232637 37.96959851 45.94292723 29 36 C28.30003906 35.2059375 27.60007812 34.411875 26.87890625 33.59375 C17.69890759 23.756834 5.3095859 16.41353406 -8 14 C-8.33 12.68 -8.66 11.36 -9 10 C-8.2575 9.649375 -7.515 9.29875 -6.75 8.9375 C-3.1422483 6.39567494 -1.99090888 3.90808039 0 0 Z " fill="#E6E6E6" transform="translate(485,65)"/>
<path d="M0 0 C0 0.66 0 1.32 0 2 C0.66 2 1.32 2 2 2 C4 6.75 4 6.75 4 9 C5.32 9.66 6.64 10.32 8 11 C8 11.66 8 12.32 8 13 C7.44054687 13.18433594 6.88109375 13.36867188 6.3046875 13.55859375 C-3.28178503 17.02636918 -19.27334316 24.54668631 -24 34 C-24.66 34 -25.32 34 -26 34 C-26.26296875 34.5671875 -26.5259375 35.134375 -26.796875 35.71875 C-28.09021364 38.17105444 -29.60123354 40.27193722 -31.25 42.5 C-37.04078983 50.69155479 -41.12294962 59.40983207 -44 69 C-47.37254513 68.26354627 -48.61265493 67.47916604 -51 65 C-52.98188345 63.63988391 -54.97951869 62.30208796 -57 61 C-54.11435363 44.85841563 -45.90872628 32.83571971 -35 21 C-34.42894531 20.33613281 -33.85789063 19.67226562 -33.26953125 18.98828125 C-27.23062165 12.32840408 -9.00462903 -3.00154301 0 0 Z " fill="#D5D5D5" transform="translate(170,67)"/>
<path d="M0 0 C0.18433594 0.7528125 0.36867188 1.505625 0.55859375 2.28125 C6.13094059 22.68842242 17.67274711 37.50033882 36 48 C36.99 48.66 37.98 49.32 39 50 C39 50.66 39 51.32 39 52 C34.66758789 52.23389268 30.33681072 52.37494264 26 52.5 C24.77925781 52.56703125 23.55851562 52.6340625 22.30078125 52.703125 C13.35606112 52.89652435 13.35606112 52.89652435 9.4453125 50.31103516 C7.42268327 48.30461289 5.69785027 46.28429289 4 44 C3.46616699 43.35643555 2.93233398 42.71287109 2.38232422 42.04980469 C-4.98270324 33.12644044 -11.67092256 21.38863853 -14 10 C-12.83720608 6.51161825 -12.18232563 6.2237397 -9.125 4.4375 C-8.42632812 4.02371094 -7.72765625 3.60992187 -7.0078125 3.18359375 C-6.34523438 2.79300781 -5.68265625 2.40242187 -5 2 C-2 0 -2 0 0 0 Z " fill="#D3D3D3" transform="translate(126,171)"/>
<path d="M0 0 C3 1 3 1 5.1875 3.3125 C7.76164454 5.77223812 8.86352437 6.43702403 11.99609375 7.65625 C15.21794784 9.22331108 16.56323873 10.32595766 17.7421875 13.73046875 C18.1438818 15.20981421 18.52031734 16.69618464 18.875 18.1875 C20.84596085 25.1435809 23.40355295 31.17010095 27.125 37.375 C27.75510986 38.43497192 27.75510986 38.43497192 28.39794922 39.51635742 C30.19542119 42.43787128 31.8590422 44.85999785 34.3046875 47.2890625 C36 49 36 49 36 52 C20.12977099 53.51145038 20.12977099 53.51145038 15.45703125 50.1953125 C13.61275297 47.55339442 12.30104832 44.94591721 11 42 C10.49855469 41.13117188 9.99710938 40.26234375 9.48046875 39.3671875 C5.978014 33.14257172 3.76203088 26.61405583 1.6875 19.8125 C1.43282959 18.98121582 1.17815918 18.14993164 0.91577148 17.29345703 C-0.66775315 11.85390155 -1.51773725 6.64531104 -2 1 C-1.34 0.67 -0.68 0.34 0 0 Z " fill="#D8D8D8" transform="translate(85,171)"/>
<path d="M0 0 C0.76313004 -0.00524185 1.52626007 -0.0104837 2.31251526 -0.0158844 C3.92553491 -0.02230379 5.53860139 -0.02096861 7.15161133 -0.01245117 C9.61689885 -0.00394767 12.07986374 -0.03268882 14.54492188 -0.06445312 C16.11328056 -0.06606546 17.68164333 -0.06548699 19.25 -0.0625 C19.98552597 -0.07373398 20.72105194 -0.08496796 21.47886658 -0.09654236 C24.6230435 -0.05384131 26.75398355 0.13743898 29.38644314 1.91973209 C31.96950029 5.51728391 31.74040079 8.89219558 31.69020081 13.15708923 C31.69558536 14.04719352 31.70096991 14.9372978 31.70651764 15.85437495 C31.71981436 18.84321776 31.70462795 21.8312431 31.68969727 24.82006836 C31.69351931 26.96030556 31.69913737 29.10054021 31.7064209 31.24076843 C31.71838663 35.85271973 31.71787039 40.46444344 31.70782661 45.07639885 C31.69229423 52.36624758 31.70592411 59.65586152 31.72386169 66.94569397 C31.75471005 81.10407196 31.75618167 95.26237861 31.75421143 109.420784 C31.75281942 127.4394373 31.76311515 145.45803576 31.80278915 163.47664839 C31.81774731 170.72595327 31.81743433 177.97505127 31.80531132 185.22435939 C31.8006082 189.73150849 31.80810811 194.23857802 31.81885529 198.74571419 C31.82126619 200.83832989 31.81850935 202.93095879 31.81024742 205.02355957 C31.79965415 207.87695565 31.80735652 210.72973859 31.81959534 213.58311462 C31.80823125 214.82951569 31.80823125 214.82951569 31.79663759 216.10109657 C31.8382599 220.6676211 32.15526274 223.76790853 35.19140625 227.43359375 C38.05287196 228.38741565 39.87026104 228.56872359 42.84208679 228.59181213 C44.27447189 228.60649536 44.27447189 228.60649536 45.73579407 228.62147522 C47.30456551 228.63010841 47.30456551 228.63010841 48.9050293 228.63891602 C50.00762085 228.64881561 51.1102124 228.65871521 52.24621582 228.66891479 C55.89849688 228.70055653 59.55079095 228.72529789 63.203125 228.75 C65.73232872 228.77056721 68.26152898 228.79156362 70.79072571 228.81297302 C76.77236059 228.8625681 82.75401315 228.9078272 88.73569661 228.95099539 C95.54582537 229.00038348 102.35590606 229.05529577 109.16598833 229.11067498 C123.17441611 229.2244668 137.18289004 229.33131194 151.19140625 229.43359375 C151.19140625 230.42359375 151.19140625 231.41359375 151.19140625 232.43359375 C152.51140625 232.10359375 153.83140625 231.77359375 155.19140625 231.43359375 C155.52140625 232.42359375 155.85140625 233.41359375 156.19140625 234.43359375 C154.9765625 236.4765625 154.9765625 236.4765625 153.25390625 238.62109375 C152.68800781 239.33652344 152.12210938 240.05195313 151.5390625 240.7890625 C151.09433594 241.33175781 150.64960938 241.87445313 150.19140625 242.43359375 C149.19140625 239.43359375 149.19140625 239.43359375 150.12890625 237.24609375 C150.47953125 236.64796875 150.83015625 236.04984375 151.19140625 235.43359375 C149.87140625 235.10359375 148.55140625 234.77359375 147.19140625 234.43359375 C147.52140625 233.44359375 147.85140625 232.45359375 148.19140625 231.43359375 C147.6187972 231.43212719 147.04618814 231.43066063 146.4562273 231.42914963 C132.51783984 231.39208408 118.57969862 231.33282044 104.64150715 231.24969101 C97.90105609 231.20989605 91.16072185 231.177506 84.42016602 231.16259766 C77.91668238 231.1481928 71.41350235 231.11308677 64.91017723 231.06528473 C62.42748344 231.05043313 59.94473797 231.04255058 57.46199989 231.0417099 C53.98770042 231.03934997 50.51440936 231.01234683 47.0402832 230.97949219 C46.01097687 230.98452255 44.98167053 230.98955292 43.9211731 230.99473572 C39.49165185 230.92981443 36.9151469 230.87708034 33.07585144 228.5244751 C29.5305851 224.59083389 30.04697876 220.95436428 30.05337524 215.89918518 C30.05055396 215.00529506 30.04773268 214.11140494 30.04482591 213.19042724 C30.0364529 210.17715445 30.03513937 207.16391826 30.03369141 204.15063477 C30.02902525 201.99759822 30.02388202 199.84456267 30.01829529 197.69152832 C30.0069994 193.04632726 29.99857251 188.40113267 29.99217606 183.75592232 C29.98151894 176.4164349 29.96128118 169.07699395 29.9390564 161.73753357 C29.8770521 140.86402509 29.82307602 119.99051925 29.79003906 99.11694336 C29.7717235 87.59549592 29.74282746 76.07412614 29.70203435 64.55273575 C29.68091499 58.4509908 29.66550011 52.34934393 29.66322708 46.2475605 C29.66108763 40.51103357 29.64529048 34.77471094 29.61883736 29.03824615 C29.61161633 26.92867851 29.60955686 24.81908619 29.61293983 22.7095089 C29.61681061 19.83775638 29.60245796 16.96666417 29.58340454 14.09498596 C29.58893424 13.25297105 29.59446393 12.41095614 29.60016119 11.54342562 C29.66274304 7.35682136 29.66274304 7.35682136 27.8761667 3.72037834 C25.13675533 1.62807357 22.05659412 2.02681313 18.75 2.0703125 C18.02651871 2.069814 17.30303741 2.06931549 16.55763245 2.06880188 C15.030337 2.07113986 13.50303753 2.08085222 11.97583008 2.09741211 C9.63392852 2.12104307 7.29316265 2.11796684 4.95117188 2.11132812 C3.46744111 2.11690376 1.98371515 2.12401293 0.5 2.1328125 C-0.20210098 2.13190109 -0.90420197 2.13098969 -1.62757874 2.13005066 C-5.66646707 2.08086085 -5.66646707 2.08086085 -8.80859375 4.43359375 C-9.01451174 7.42885983 -9.09364617 10.33276311 -9.08706665 13.3298645 C-9.09285905 14.26262329 -9.09865145 15.19538208 -9.10461938 16.15640628 C-9.12170762 19.3010826 -9.12450345 22.44561294 -9.12744141 25.59033203 C-9.1367335 27.83690759 -9.14690108 30.08347967 -9.15788269 32.33004761 C-9.18527782 38.44542923 -9.2003602 44.56078771 -9.21331072 50.67621469 C-9.22889978 57.06109696 -9.25570336 63.44593164 -9.28134155 69.83078003 C-9.32287398 80.55270215 -9.357447 91.27462094 -9.38671875 101.99658203 C-9.41689125 113.04152289 -9.45123551 124.08643774 -9.49121094 135.13134766 C-9.49367249 135.8118572 -9.49613403 136.49236675 -9.49867018 137.19349779 C-9.51104452 140.60732502 -9.52350111 144.02115194 -9.53599858 147.43497872 C-9.63961413 175.76781405 -9.72865385 204.10068242 -9.80859375 232.43359375 C-10.13859375 232.43359375 -10.46859375 232.43359375 -10.80859375 232.43359375 C-11.70684836 215.51248356 -11.88555501 198.61292064 -11.859375 181.671875 C-11.85737063 179.38514204 -11.85540356 177.09840905 -11.85346985 174.81167603 C-11.8448506 167.01896638 -11.82774597 159.2262831 -11.80859375 151.43359375 C-11.8068751 150.71895541 -11.80515646 150.00431706 -11.80338573 149.26802301 C-11.75506438 129.29560053 -11.68099768 109.32340351 -11.57286644 89.3512125 C-11.52736158 80.89447177 -11.4878863 72.43778323 -11.4621582 63.98095703 C-11.43923222 56.44629538 -11.40599093 48.91176576 -11.35989219 41.37720883 C-11.33607593 37.43139359 -11.31726605 33.48570702 -11.31097984 29.53982162 C-11.30496652 25.87665142 -11.28510619 22.21382453 -11.25431824 18.55078125 C-11.24130618 16.57068867 -11.24311247 14.59051619 -11.24531555 12.61038208 C-11.2327774 11.43755676 -11.22023926 10.26473145 -11.20732117 9.05636597 C-11.2027122 8.03656584 -11.19810324 7.01676571 -11.19335461 5.96606255 C-10.80859375 3.43359375 -10.80859375 3.43359375 -9.50179768 1.60742378 C-6.6373788 -0.37836237 -3.36447409 -0.01339147 0 0 Z " fill="#4A4A4A" transform="translate(26.80859375,0.56640625)"/>
<path d="M0 0 C0.66 0 1.32 0 2 0 C2.38133299 1.9914056 2.71325582 3.99279077 3 6 C1.43206959 7.56793041 -0.10544931 7.12919347 -2.284729 7.13371277 C-3.20970184 7.13797775 -4.13467468 7.14224274 -5.087677 7.14663696 C-6.62257278 7.14595718 -6.62257278 7.14595718 -8.18847656 7.14526367 C-9.79597275 7.15030159 -9.79597275 7.15030159 -11.4359436 7.15544128 C-15.00418233 7.16499318 -18.57237425 7.16689723 -22.140625 7.16796875 C-24.61912048 7.17118097 -27.09761576 7.17454502 -29.57611084 7.17805481 C-34.78837523 7.18405846 -40.00062302 7.1858937 -45.21289062 7.18530273 C-51.86701362 7.18463971 -58.52104146 7.1987946 -65.1751442 7.21607494 C-70.30381754 7.22724481 -75.43246533 7.22922033 -80.5611496 7.22869301 C-83.0121472 7.22986789 -85.46314558 7.23426189 -87.91413116 7.24202538 C-112.55655341 7.31270288 -112.55655341 7.31270288 -123 5 C-119.9293701 4.10390246 -117.19516405 3.87637641 -114.00128174 3.87974548 C-112.99449875 3.87837082 -111.98771576 3.87699615 -110.95042419 3.87557983 C-109.30288902 3.88097275 -109.30288902 3.88097275 -107.62207031 3.88647461 C-105.88018181 3.88625557 -105.88018181 3.88625557 -104.10310364 3.8860321 C-100.26142515 3.88672925 -96.41979503 3.89451246 -92.578125 3.90234375 C-89.91583168 3.90420863 -87.25354105 3.90568139 -84.59124756 3.90663147 C-78.29795503 3.90973859 -72.0046799 3.91794365 -65.71139503 3.92798096 C-58.54578201 3.9391613 -51.38016816 3.94465739 -44.21454859 3.94967639 C-29.47635684 3.96012677 -14.73817872 3.97771425 0 4 C-0.495 2.515 -0.495 2.515 -1 1 C-0.67 0.67 -0.34 0.34 0 0 Z " fill="#2C2B2C" transform="translate(174,266)"/>
<path d="M0 0 C37.95 0 75.9 0 115 0 C115 0.99 115 1.98 115 3 C116.32 2.67 117.64 2.34 119 2 C119.495 3.485 119.495 3.485 120 5 C118.78515625 7.04296875 118.78515625 7.04296875 117.0625 9.1875 C116.49660156 9.90292969 115.93070312 10.61835938 115.34765625 11.35546875 C114.90292969 11.89816406 114.45820313 12.44085938 114 13 C113 10 113 10 113.9375 7.8125 C114.288125 7.214375 114.63875 6.61625 115 6 C113.68 5.67 112.36 5.34 111 5 C111.33 4.01 111.66 3.02 112 2 C75.04 1.67 38.08 1.34 0 1 C0 0.67 0 0.34 0 0 Z " fill="#747474" transform="translate(63,230)"/>
<path d="M0 0 C2.64 1.98 5.28 3.96 8 6 C5.3333581 7.33332095 3.83319697 6.67102033 1 6 C1.26676204 7.98491642 1.26676204 7.98491642 2 10 C2.99 10.33 3.98 10.66 5 11 C4.34 11.33 3.68 11.66 3 12 C0.69 10.35 -1.62 8.7 -4 7 C-4.29132812 7.96679688 -4.58265625 8.93359375 -4.8828125 9.9296875 C-9.95034533 26.24159665 -18.93960285 40.76259405 -33 51 C-35.765625 52.21484375 -35.765625 52.21484375 -38 53 C-35.7320343 50.65887411 -33.48124767 48.40305656 -30.98046875 46.30859375 C-19.09992107 36.3422499 -10.2367981 23.19087843 -6.8359375 7.9609375 C-5.73684024 5.38268131 -4.46920112 5.18256758 -2 4 C-1.34 2.68 -0.68 1.36 0 0 Z " fill="#191919" transform="translate(539,165)"/>
<path d="M0 0 C15.31345404 7.24738932 25.92689046 27.60663173 32.1640625 42.84375 C33.25302335 45.97832891 34 48.66700487 34 52 C35.010625 52.0825 36.02125 52.165 37.0625 52.25 C41.37786916 52.84006068 44.34738197 54.68916002 48 57 C48.66 56.01 49.32 55.02 50 54 C50.495 56.475 50.495 56.475 51 59 C43.08297872 58.35106383 43.08297872 58.35106383 40 55 C38.87464844 54.78472656 37.74929688 54.56945312 36.58984375 54.34765625 C33 53 33 53 31.3203125 49.8671875 C30.89948068 48.54336986 30.50241365 47.21184385 30.125 45.875 C25.31791552 31.3683165 17.74828498 19.85967755 7.47509766 8.63232422 C4.92249305 5.80764458 2.46419744 2.90177029 0 0 Z " fill="#212121" transform="translate(526,73)"/>
<path d="M0 0 C13.35870574 5.4894444 22.24012369 22.09553653 27.5625 34.6875 C28.79806783 37.86702789 29 39.43693821 29 43 C29.69867187 42.4946875 30.39734375 41.989375 31.1171875 41.46875 C32.02726563 40.8190625 32.93734375 40.169375 33.875 39.5 C34.77992188 38.8503125 35.68484375 38.200625 36.6171875 37.53125 C39 36 39 36 41 36 C41.33 35.01 41.66 34.02 42 33 C42.33 33.99 42.66 34.98 43 36 C41.41906946 37.12837409 39.83515284 38.25256518 38.25 39.375 C37.36828125 40.00148437 36.4865625 40.62796875 35.578125 41.2734375 C33.42585021 42.71480941 31.34539477 43.91498093 29 45 C28.70867188 44.27296875 28.41734375 43.5459375 28.1171875 42.796875 C21.59685419 26.80360461 14.17504008 14.71003851 1.65234375 2.6796875 C0 1 0 1 0 0 Z " fill="#1E1E1E" transform="translate(505,91)"/>
<path d="M0 0 C0.66 0.33 1.32 0.66 2 1 C-0.31 3.31 -2.62 5.62 -5 8 C-4.67 8.66 -4.34 9.32 -4 10 C-4.50789063 10.42410156 -5.01578125 10.84820312 -5.5390625 11.28515625 C-9.63390017 14.77420333 -13.27171423 18.26982094 -16.578125 22.51953125 C-18.23400768 24.24365085 -19.82469078 25.03851333 -22 26 C-22.66 26.33 -23.32 26.66 -24 27 C-22.59050927 23.8352446 -20.89922941 21.60564458 -18.515625 19.1015625 C-17.82726562 18.37453125 -17.13890625 17.6475 -16.4296875 16.8984375 C-15.71039063 16.14820312 -14.99109375 15.39796875 -14.25 14.625 C-13.54617188 13.8825 -12.84234375 13.14 -12.1171875 12.375 C-8.13760317 8.18829976 -4.10370347 4.06498929 0 0 Z " fill="#696969" transform="translate(385,97)"/>
<path d="M0 0 C0.33 0.66 0.66 1.32 1 2 C0.1796875 4.14453125 0.1796875 4.14453125 -1.125 6.8125 C-2.68103898 10.01313302 -4.00788016 13.02639704 -5.02734375 16.44140625 C-7.63631029 25.09529904 -7.63631029 25.09529904 -11.80859375 27.86328125 C-14.84684443 29.12395075 -17.83744234 30.10422236 -21 31 C-22.67393686 31.64819566 -24.34338682 32.30872943 -26 33 C-26.33 32.34 -26.66 31.68 -27 31 C-26.34 30.34 -25.68 29.68 -25 29 C-24.34 29 -23.68 29 -23 29 C-21.713596 28.36389736 -20.44458672 27.69223896 -19.1875 27 C-15.96632464 25.33367249 -13.69199695 24.53850038 -10 25 C-9.85884766 23.76830078 -9.85884766 23.76830078 -9.71484375 22.51171875 C-8.85735799 18.29926136 -7.32764974 14.71308548 -5.5625 10.8125 C-5.24990234 10.10158203 -4.93730469 9.39066406 -4.61523438 8.65820312 C-3.25112725 5.59256704 -1.86515456 2.79773184 0 0 Z " fill="#202020" transform="translate(110,101)"/>
<path d="M0 0 C0.66 0.33 1.32 0.66 2 1 C-5.93589088 5.94022346 -13.96365184 10.04372878 -22.625 13.5625 C-23.48963867 13.92085938 -24.35427734 14.27921875 -25.24511719 14.6484375 C-26.47343262 15.13376953 -26.47343262 15.13376953 -27.7265625 15.62890625 C-28.45439941 15.91838135 -29.18223633 16.20785645 -29.93212891 16.50610352 C-32.31277763 17.07470474 -33.70563986 16.77545364 -36 16 C-35.01 14.35 -34.02 12.7 -33 11 C-32.67 11.99 -32.34 12.98 -32 14 C-22.40266816 10.89878139 -13.39704484 7.5232412 -4.64819336 2.453125 C-3.12734513 1.58346927 -1.56655402 0.7843398 0 0 Z " fill="#1D1D1D" transform="translate(252,254)"/>
<path d="M0 0 C2.64 1.98 5.28 3.96 8 6 C5.3333581 7.33332095 3.83319697 6.67102033 1 6 C1.26676204 7.98491642 1.26676204 7.98491642 2 10 C2.99 10.33 3.98 10.66 5 11 C4.01 11.495 4.01 11.495 3 12 C0.69 10.35 -1.62 8.7 -4 7 C-5.32 10.96 -6.64 14.92 -8 19 C-9.15210474 15.54368579 -8.80762372 14.36739344 -7.8125 10.9375 C-7.57144531 10.05964844 -7.33039062 9.18179688 -7.08203125 8.27734375 C-5.76160309 5.49824765 -4.70858466 5.26751243 -2 4 C-1.34 2.68 -0.68 1.36 0 0 Z " fill="#0E0E0E" transform="translate(539,165)"/>
<path d="M0 0 C1.32 0.33 2.64 0.66 4 1 C3.67 1.66 3.34 2.32 3 3 C2.01 3 1.02 3 0 3 C-1.5014723 4.38717169 -1.5014723 4.38717169 -2.75 6.25 C-3.19859375 6.85328125 -3.6471875 7.4565625 -4.109375 8.078125 C-5.14938706 9.94042422 -5.14938706 9.94042422 -4.92578125 11.9375 C-3.62858123 14.8274646 -1.71707431 16.56674573 0.5625 18.75 C1.38878906 19.54921875 2.21507812 20.3484375 3.06640625 21.171875 C3.70449219 21.77515625 4.34257812 22.3784375 5 23 C4.67 23.66 4.34 24.32 4 25 C1.9599607 23.12172593 -0.05539547 21.22541638 -2.0625 19.3125 C-2.93358398 18.51682617 -2.93358398 18.51682617 -3.82226562 17.70507812 C-7.97500821 13.69977019 -7.97500821 13.69977019 -8.09375 10.375 C-6.85699314 7.68947082 -5.4522335 5.84875957 -3.4375 3.6875 C-2.79683594 2.99011719 -2.15617187 2.29273438 -1.49609375 1.57421875 C-1.00238281 1.05472656 -0.50867188 0.53523437 0 0 Z " fill="#202020" transform="translate(339,181)"/>
<path d="M0 0 C0.33 0.99 0.66 1.98 1 3 C2.32 2.67 3.64 2.34 5 2 C5.33 2.99 5.66 3.98 6 5 C4.78515625 7.04296875 4.78515625 7.04296875 3.0625 9.1875 C2.49660156 9.90292969 1.93070313 10.61835938 1.34765625 11.35546875 C0.90292969 11.89816406 0.45820313 12.44085938 0 13 C-1 10 -1 10 -0.0625 7.8125 C0.288125 7.214375 0.63875 6.61625 1 6 C-0.32 5.67 -1.64 5.34 -3 5 C-1.125 1.125 -1.125 1.125 0 0 Z " fill="#0C0C0C" transform="translate(177,230)"/>
<path d="M0 0 C8.35598853 2.9465059 15.36124657 9.25837541 22 15 C17.86644619 15 16.45732419 13.23952064 13.25 10.6875 C9.01424261 7.3836862 5.10532553 4.74045189 0 3 C0 2.01 0 1.02 0 0 Z " fill="#2F2F2F" transform="translate(255,53)"/>
<path d="M0 0 C0.33 0 0.66 0 1 0 C1.6503186 8.4107872 1.04327923 15.00576802 -4 22 C-6.171875 23.77734375 -6.171875 23.77734375 -8 25 C-8.66 24.67 -9.32 24.34 -10 24 C-9.27683594 23.22076172 -9.27683594 23.22076172 -8.5390625 22.42578125 C-7.90742188 21.72839844 -7.27578125 21.03101562 -6.625 20.3125 C-5.99851562 19.62800781 -5.37203125 18.94351563 -4.7265625 18.23828125 C-1.55289406 14.12400067 -0.74481575 10.3032845 -0.375 5.1875 C-0.30023438 4.21167969 -0.22546875 3.23585937 -0.1484375 2.23046875 C-0.09945313 1.49441406 -0.05046875 0.75835937 0 0 Z " fill="#181818" transform="translate(481,49)"/>
<path d="M0 0 C3 1 3 1 5.375 3.4375 C7.92427486 5.92607784 9.65213121 6.94781267 13 8 C13 8.33 13 8.66 13 9 C7.37458159 8.54996653 4.38512875 7.31558515 0 4 C-0.99 4.495 -0.99 4.495 -2 5 C-2 3.68 -2 2.36 -2 1 C-1.34 0.67 -0.68 0.34 0 0 Z " fill="#141414" transform="translate(85,171)"/>
<path d="M0 0 C10.55808656 2.89066059 10.55808656 2.89066059 15 6 C15.66 5.01 16.32 4.02 17 3 C17.33 4.65 17.66 6.3 18 8 C10.08297872 7.35106383 10.08297872 7.35106383 7 4 C4.69011685 3.25613932 2.35684056 2.57809297 0 2 C0 1.34 0 0.68 0 0 Z " fill="#111111" transform="translate(559,124)"/>
<path d="M0 0 C0.99 0.33 1.98 0.66 3 1 C3 1.66 3 2.32 3 3 C3.66 3 4.32 3 5 3 C6.0625 5.375 6.0625 5.375 7 8 C6.67 8.66 6.34 9.32 6 10 C2 5.25 2 5.25 2 3 C0.35 3 -1.3 3 -3 3 C-2.01 2.01 -1.02 1.02 0 0 Z " fill="#1A1A1A" transform="translate(167,66)"/>
<path d="M0 0 C0 0.66 0 1.32 0 2 C-1.8253125 2.680625 -1.8253125 2.680625 -3.6875 3.375 C-6.8080927 4.54452941 -9.91230616 5.74562438 -13 7 C-13.33 6.34 -13.66 5.68 -14 5 C-13.34 4.34 -12.68 3.68 -12 3 C-11.34 3 -10.68 3 -10 3 C-9.236875 2.505 -8.47375 2.01 -7.6875 1.5 C-4.79257883 -0.11576996 -3.24973005 -0.27854829 0 0 Z " fill="#141414" transform="translate(97,127)"/>
<path d="M0 0 C0 0.66 0 1.32 0 2 C-1.32 2.33 -2.64 2.66 -4 3 C-4 2.34 -4 1.68 -4 1 C-9.0302076 1.52537724 -14.01885239 2.10594786 -19 3 C-15.86164468 0.24653732 -13.64068171 -0.45423702 -9.5 -0.75 C-8.5615625 -0.82734375 -7.623125 -0.9046875 -6.65625 -0.984375 C-4.21000136 -0.9987647 -2.32232206 -0.72298706 0 0 Z " fill="#626262" transform="translate(565,131)"/>
<path d="M0 0 C0.66 0.33 1.32 0.66 2 1 C-0.6924337 4.78935113 -2.5842007 6.56486523 -7 8 C-8.34050052 8.65213539 -9.67661368 9.31379969 -11 10 C-7.84778899 5.58690458 -4.44536093 2.99206986 0 0 Z " fill="#676767" transform="translate(407,79)"/>
<path d="M0 0 C0.66 0.33 1.32 0.66 2 1 C1.04882866 2.1725131 0.08882991 3.33787015 -0.875 4.5 C-1.40867187 5.1496875 -1.94234375 5.799375 -2.4921875 6.46875 C-2.98976563 6.9740625 -3.48734375 7.479375 -4 8 C-4.66 8 -5.32 8 -6 8 C-6 8.99 -6 9.98 -6 11 C-6.66 11 -7.32 11 -8 11 C-6.60366572 6.55711819 -4.39598172 4.13475236 -1 1 C-0.67 0.67 -0.34 0.34 0 0 Z " fill="#777777" transform="translate(449,232)"/>
<path d="M0 0 C-1.50566464 3.8326009 -3.80257213 5.50444654 -7 8 C-8.76323505 10.12603185 -8.76323505 10.12603185 -10 12 C-9.49572053 7.58755464 -7.98672249 5.25025683 -5 2 C-2 0 -2 0 0 0 Z " fill="#676767" transform="translate(546,134)"/>
<path d="M0 0 C0.33 0.66 0.66 1.32 1 2 C1.66 2 2.32 2 3 2 C3.33 2.99 3.66 3.98 4 5 C-0.97601626 6.71050559 -4.42616295 5.00885647 -9 3 C-5.23375329 1.74458443 -3.62811066 2.62938042 0 4 C0 2.68 0 1.36 0 0 Z " fill="#222222" transform="translate(437,265)"/>
<path d="M0 0 C0.66 0.33 1.32 0.66 2 1 C-3.14285714 7.57142857 -3.14285714 7.57142857 -7 9 C-5.64978174 4.58110387 -3.73884332 2.65654657 0 0 Z " fill="#6F6F6F" transform="translate(448,36)"/>
<path d="M0 0 C0.66 0.33 1.32 0.66 2 1 C1.0625 2.875 1.0625 2.875 -1 5 C-3.95485056 5.95351561 -6.9369519 6.51196718 -10 7 C-6.98387254 3.79017628 -3.91966781 1.99546725 0 0 Z " fill="#616161" transform="translate(515,240)"/>
<path d="M0 0 C0 3.88182751 -0.99521992 5.91792914 -3.625 8.75 C-4.305625 9.36875 -4.305625 9.36875 -5 10 C-5.99 9.67 -6.98 9.34 -8 9 C-5.36 6.03 -2.72 3.06 0 0 Z " fill="#7B7B7B" transform="translate(310,183)"/>
<path d="M0 0 C0.66 0.33 1.32 0.66 2 1 C1.01 1.33 0.02 1.66 -1 2 C-1.33 4.97 -1.66 7.94 -2 11 C-3.46132217 8.07735566 -4.34099246 6.07536854 -5 3 C-2.625 1.4375 -2.625 1.4375 0 0 Z " fill="#666666" transform="translate(117,176)"/>
<path d="M0 0 C0.66 0 1.32 0 2 0 C2 0.66 2 1.32 2 2 C3.60875 1.87625 3.60875 1.87625 5.25 1.75 C9 2 9 2 11.4375 4 C12.2109375 4.99 12.2109375 4.99 13 6 C8.90892832 5.25616878 4.93275129 4.36133698 1 3 C0.67 2.01 0.34 1.02 0 0 Z " fill="#636363" transform="translate(486,50)"/>
<path d="M0 0 C0.25 7.625 0.25 7.625 -2 11 C-2.12375 9.865625 -2.2475 8.73125 -2.375 7.5625 C-2.58125 6.386875 -2.7875 5.21125 -3 4 C-3.66 3.67 -4.32 3.34 -5 3 C-1.125 0 -1.125 0 0 0 Z " fill="#929292" transform="translate(576,173)"/>
<path d="M0 0 C0.33 0.99 0.66 1.98 1 3 C1.99 3 2.98 3 4 3 C4 3.66 4 4.32 4 5 C2.02 5.33 0.04 5.66 -2 6 C-2 3 -2 3 0 0 Z " fill="#424242" transform="translate(219,265)"/>
<path d="M0 0 C0 3 0 3 -1 5 C-0.34 5.66 0.32 6.32 1 7 C-0.65 7 -2.3 7 -4 7 C-4.33 5.68 -4.66 4.36 -5 3 C-3.35 2.01 -1.7 1.02 0 0 Z " fill="#272727" transform="translate(481,72)"/>
<path d="M0 0 C0.33 0.99 0.66 1.98 1 3 C-0.8125 5 -0.8125 5 -3 7 C-3.99 7 -4.98 7 -6 7 C-6 6.34 -6 5.68 -6 5 C-4.04072937 3.2856382 -2.04119788 1.61594832 0 0 Z " fill="#858585" transform="translate(286,209)"/>
<path d="M0 0 C0.66 0.33 1.32 0.66 2 1 C0.8125 3 0.8125 3 -1 5 C-3.6875 5.25 -3.6875 5.25 -6 5 C-4.06745228 2.9754262 -2.36841312 1.57894208 0 0 Z " fill="#6B6B6B" transform="translate(234,216)"/>
<path d="M0 0 C-0.33 1.32 -0.66 2.64 -1 4 C-1.66 3.67 -2.32 3.34 -3 3 C-3 2.34 -3 1.68 -3 1 C-4.65 1 -6.3 1 -8 1 C-4.93251126 -0.86240388 -3.40254489 -1.2151946 0 0 Z " fill="#1C1C1C" transform="translate(173,38)"/>
<path d="M0 0 C0.66 1.32 1.32 2.64 2 4 C1.34 3.67 0.68 3.34 0 3 C0 2.01 0 1.02 0 0 Z " fill="#000000" transform="translate(171,259)"/>
<path d="M0 0 C0 3 0 3 0 3 Z " fill="#000000" transform="translate(170,43)"/>
<path d="" fill="#000000" transform="translate(0,0)"/>
<path d="" fill="#000000" transform="translate(0,0)"/>
<path d="" fill="#000000" transform="translate(0,0)"/>
<path d="" fill="#000000" transform="translate(0,0)"/>
<path d="" fill="#000000" transform="translate(0,0)"/>
<path d="" fill="#000000" transform="translate(0,0)"/>
</svg>
